<?xml version="1.0" encoding="utf-8"?><svg xmlns="http://www.w3.org/2000/svg" xmlns:xlink="http://www.w3.org/1999/xlink" width="2402" height="210" preserveAspectRatio="xMidYMid" viewBox="0 0 2402 210" style="z-index:1;margin-right:-2px;display:block;animation-play-state:paused" ><g transform="translate(1201,105) scale(1,1) translate(-1201,-105)" style="transform:matrix(1, 0, 0, 1, 0, 0);animation-play-state:paused" ><linearGradient id="lg-0.3158752832973286" x1="0" x2="1" y1="0" y2="0" style="animation-play-state:paused" ><stop stop-color="#fc4309" offset="0" style="animation-play-state:paused" ></stop>


<stop stop-color="#6c757d" offset="1" style="animation-play-state:paused" ></stop></linearGradient>
<path d="M 0 0 L 0 186.07 Q 240.2 162.781 480.4 141.487 T 960.8 101.124 T 1441.2 68.7403 T 1921.6 77.066 T 2402 39.2326 L 2402 0 Z" fill="url(#lg-0.3158752832973286)" opacity="0.4" style="opacity:0.4;animation-play-state:paused" ></path>
<path d="M 0 0 L 0 159.295 Q 240.2 165.005 480.4 131.465 T 960.8 122.198 T 1441.2 99.7639 T 1921.6 56.5318 T 2402 19.2345 L 2402 0 Z" fill="url(#lg-0.3158752832973286)" opacity="0.4" style="opacity:0.4;animation-play-state:paused" ></path>
<path d="M 0 0 L 0 149.768 Q 240.2 158.813 480.4 126.066 T 960.8 81.6794 T 1441.2 107.695 T 1921.6 22.0533 T 2402 13.0335 L 2402 0 Z" fill="url(#lg-0.3158752832973286)" opacity="0.4" style="opacity:0.4;animation-play-state:paused" ></path>
<path d="M 0 0 L 0 143.379 Q 240.2 159.824 480.4 129.178 T 960.8 123.252 T 1441.2 108.792 T 1921.6 64.3485 T 2402 36.2099 L 2402 0 Z" fill="url(#lg-0.3158752832973286)" opacity="0.4" style="opacity:0.4;animation-play-state:paused" ></path>
<path d="M 0 0 L 0 157.454 Q 240.2 176.124 480.4 135.266 T 960.8 137.504 T 1441.2 84.434 T 1921.6 65.8672 T 2402 28.0086 L 2402 0 Z" fill="url(#lg-0.3158752832973286)" opacity="0.4" style="opacity:0.4;animation-play-state:paused" ></path></g></svg>
